<svg xmlns="http://www.w3.org/2000/svg" xmlns:svg="http://www.w3.org/2000/svg" id="svg8" width="602.293" height="356.097" version="1.1" viewBox="0 0 159.357 94.217"><metadata id="metadata5"/><g id="layer1" transform="translate(-25.321609,-101.39132)"><g id="g4537" transform="matrix(5.9865348,0,0,5.9865348,-305.29573,-616.79622)"><path style="font-style:normal;font-variant:normal;font-weight:400;font-stretch:normal;font-size:19.75555611px;line-height:0;font-family:OpenSymbol;-inkscape-font-specification:OpenSymbol;letter-spacing:0;word-spacing:0;fill:#000;fill-opacity:1;stroke:none;stroke-width:.26458332" id="path3717" d="m 55.894996,120.63532 h 2.903527 l 3.675228,9.80061 3.69452,-9.80061 h 2.903527 v 14.40188 h -1.900315 v -12.64626 l -3.713813,9.87778 h -1.958192 l -3.713813,-9.87778 v 12.64626 h -1.890669 z"/><path style="font-style:normal;font-variant:normal;font-weight:400;font-stretch:normal;font-size:19.75555611px;line-height:0;font-family:OpenSymbol;-inkscape-font-specification:OpenSymbol;letter-spacing:0;word-spacing:0;fill:#0db7ed;fill-opacity:1;stroke:none;stroke-width:.26458332" id="path3719" d="m 71.020344,122.2366 v 11.19932 h 2.353689 q 2.980697,0 4.360113,-1.35048 1.389063,-1.35048 1.389063,-4.26365 0,-2.89388 -1.389063,-4.23471 -1.379416,-1.35048 -4.360113,-1.35048 z m -1.948546,-1.60128 h 4.003201 q 4.18648,0 6.144673,1.74597 1.958192,1.73633 1.958192,5.4405 0,3.72346 -1.967839,5.46943 -1.967838,1.74598 -6.135026,1.74598 h -4.003201 z"/></g></g></svg>